<?xml version="1.0" encoding="UTF-8"?>
<svg width="20px" height="16px" viewBox="0 0 20 16" version="1.1" xmlns="http://www.w3.org/2000/svg" xmlns:xlink="http://www.w3.org/1999/xlink">
    <title>编组</title>
    <defs>
        <filter id="filter-1">
            <feColorMatrix in="SourceGraphic" type="matrix" values="0 0 0 0 0.000000 0 0 0 0 0.000000 0 0 0 0 0.000000 0 0 0 1.000000 0"></feColorMatrix>
        </filter>
    </defs>
    <g id="页面-1" stroke="none" stroke-width="1" fill="none" fill-rule="evenodd" opacity="0.7">
        <g id="3-1.热点节目舆情" transform="translate(-81.000000, -845.000000)">
            <g id="首页首屏" transform="translate(63.000000, 771.000000)">
                <g id="编组" transform="translate(0.000000, 62.000000)" filter="">
                    <g transform="translate(18.000000, 12.000000)">
                        <path d="M8.00019463,10.9232338 L8.00019463,5.10268292 C8.02185456,4.718663 7.83630149,4.35130293 7.51020258,4.13259111 C7.27627129,3.97192459 7.01077424,3.85965454 6.73021523,3.8027599 C6.07437751,3.65735091 5.39689742,3.62777562 4.73024767,3.71545163 C4.37727101,3.75207577 4.0363819,3.86120647 3.73026389,4.03558193 C3.29410567,4.22373356 3.0095475,4.63970237 3.00027573,5.10268292 L3.00027573,10.8456264 C2.9670714,11.2902616 3.22228778,11.7080652 3.64026535,11.8933256 C4.35213381,12.2129337 5.14070688,12.3370786 5.92022837,12.2522596 C6.02022675,12.2522596 6.09022561,12.2522596 6.12022513,12.3589697 C6.16553699,12.7226915 6.48256259,12.9969919 6.86021313,12.9992303 C7.21659838,13.0184673 7.57381052,13.0184673 7.93019577,12.9992303 C8.08019334,12.9992303 8.1501922,12.9313238 8.1501922,12.7858101 L8.1501922,12.2910632 C8.1501922,12.1261476 8.08019334,12.0582412 7.90019626,12.0582412 L7.29020615,12.0582412 C7.22249331,12.0827846 7.1479224,12.0827846 7.08020956,12.0582412 C7.08020956,12.0097366 7.16020826,12.0097366 7.20020761,11.9903348 C7.66898346,11.8297389 7.98713742,11.4053541 8.00019463,10.9232338 L8.00019463,10.9232338 Z M6.09022561,10.77772 C6.09022561,11.1269531 6.00022707,11.2336632 5.63023308,11.2724668 C5.43877078,11.306421 5.24109603,11.2756015 5.07024216,11.1851586 C4.96376945,11.1235332 4.89619108,11.0142694 4.89024508,10.894131 L4.89024508,10.7292154 L4.89024508,5.26759853 C4.88348635,5.19985037 4.88348635,5.13162741 4.89024508,5.06387925 C4.91100157,4.93132433 5.00815116,4.82199949 5.14024102,4.78255263 C5.36181482,4.71665578 5.5986562,4.71665578 5.82022999,4.78255263 C5.97827078,4.80744646 6.0883067,4.94835208 6.07022594,5.10268292 L6.07022594,10.7486173 L6.09022561,10.77772 Z M0.160321796,3.32741491 L1.76029585,3.32741491 C1.8802939,3.32741491 1.92029325,3.32741491 1.93029309,3.17220022 C1.96893204,2.72737694 2.27495615,2.3467663 2.71028044,2.20210841 C2.8630639,2.15203096 3.02044986,2.11629704 3.18027281,2.09539831 C4.79687473,1.86038498 6.4263312,1.71785852 8.06019366,1.66855791 L12.0801285,1.66855791 C13.0801122,1.66855791 13.9900975,1.7655671 14.9500819,1.86257628 C15.6100712,1.9304827 16.2700605,2.00809005 16.9500495,2.11480015 C17.5105345,2.18090904 17.9476987,2.61712233 18.0000324,3.1624993 C18.0000324,3.2692094 18.0700313,3.29831216 18.1700297,3.29831216 L19.7700037,3.29831216 C19.8900018,3.29831216 19.9300011,3.29831216 19.9200013,3.14309747 C19.8989506,2.85576106 19.8554937,2.57038438 19.7900034,2.28941667 C19.6327381,1.46962823 18.9741196,0.826848439 18.1300303,0.669363349 C17.2750764,0.489804414 16.4103927,0.357015683 15.5400723,0.271625707 C14.9000827,0.20371928 14.2700929,0.15521469 13.6301033,0.116411017 C12.9901137,0.0776073448 12.1301276,0.0291027543 11.37014,0 L7.60020112,0 L6.0602261,0.15521469 C5.28023875,0.252223871 4.49025157,0.252223871 3.71026422,0.378335806 C2.99541495,0.456568976 2.28704724,0.58298653 1.5902986,0.756671612 C0.988999869,0.911153472 0.50131163,1.33731366 0.28031985,1.90137995 C0.118380652,2.30461314 0.0238586519,2.73034692 0.00032439159,3.1624993 C0.00032439159,3.30801307 0.0703232562,3.32741491 0.160321796,3.32741491 Z" id="形状" fill="blue" fill-rule="nonzero"></path>
                        <path d="M19.7900034,12.6596981 L18.210029,12.6596981 C18.090031,12.6596981 18.0500316,12.6596981 18.030032,12.8149128 C18.0063576,13.1786638 17.8010131,13.5082596 17.4800409,13.6976964 C17.2840841,13.8011409 17.0707958,13.8701118 16.8500511,13.9014156 C15.6400707,14.0857331 14.4100907,14.211845 13.1901105,14.2797515 C12.5201213,14.2797515 11.8501322,14.3476579 11.1901429,14.3573588 C10.5301536,14.3670597 9.58016901,14.3573588 8.77018215,14.3573588 C7.7001995,14.3573588 6.63021686,14.2894524 5.56023421,14.2021441 C4.74024751,14.1342377 3.93026065,14.0372285 3.12027379,13.9111166 C2.83994948,13.8816208 2.57347974,13.7775476 2.35028628,13.6103881 C2.11117092,13.39563 1.9646958,13.1010395 1.94029293,12.7858101 C1.94029293,12.7082027 1.94029293,12.669399 1.82029487,12.6791 L0.150321959,12.6791 C0.0603234184,12.6791 0.0203240672,12.6791 0.030323905,12.8052119 C0.0483252222,13.2258579 0.132634761,13.6413477 0.28031985,14.0372285 C0.489644773,14.6335082 0.992597421,15.0886557 1.62029812,15.2498433 C2.2314483,15.4068628 2.85286067,15.5235409 3.48026795,15.5990763 C4.710248,15.7639919 5.96022772,15.8513002 7.20020761,15.9289075 C8.0701935,15.987113 8.94017939,15.987113 9.81016528,15.996814 C10.6801512,16.0065149 11.6101361,15.996814 12.5101215,15.9289075 L14.0100972,15.8415993 C14.7700848,15.7833938 15.5400723,15.7154873 16.30006,15.6184781 C17.0084265,15.5409351 17.7101938,15.4145028 18.400026,15.2401423 C18.9863549,15.0829302 19.4611983,14.6654669 19.6800052,14.1148358 C19.8605819,13.7018501 19.9687368,13.2624897 20,12.8149128 C20,12.6888009 19.9100015,12.6596981 19.7900034,12.6596981 L19.7900034,12.6596981 Z M15.8800668,7.89654734 L17.2500446,4.21019846 C17.3300433,4.00647918 17.2500446,3.90947 17.0300482,3.90947 L15.6300709,3.90947 C15.4500738,3.90947 15.4100744,3.90947 15.3600753,4.10348836 L14.8500835,5.68473801 C14.7400853,6.04367198 14.6300871,6.41230687 14.5000892,6.80034359 L14.5000892,6.67423166 C14.2500933,5.81084994 13.9700978,4.95716915 13.6901023,4.10348836 C13.6401032,3.93857275 13.590104,3.89976908 13.4201067,3.89976908 L12.0001298,3.89976908 C11.800133,3.89976908 11.7201343,4.00647918 11.7901332,4.19079662 L11.9901299,4.7146462 C12.4301228,5.90785913 12.8601158,7.10107205 13.3201083,8.27488314 C13.5163054,8.74267671 13.6115976,9.24451393 13.6001038,9.7494227 L13.6001038,11.7575127 C13.6001038,11.9903348 13.6601028,12.0388394 13.8900991,12.0388394 L15.2100777,12.0388394 C15.4500738,12.0388394 15.4800733,12.0388394 15.4800733,11.7769146 L15.4800733,9.2158722 C15.4645154,9.13247493 15.4645154,9.0470456 15.4800733,8.96364833 L15.8800668,7.89654734 Z M10.7001508,3.90947 L9.4201716,3.90947 C9.16017582,3.90947 9.11017663,3.95797459 9.11017663,4.21019846 C9.10351007,5.45191598 9.10017679,6.71950261 9.10017679,8.01295835 C9.10017679,9.3064141 9.10017679,10.5740007 9.10017679,11.8157183 C9.10017679,12.0291385 9.16017582,12.087344 9.38017225,12.087344 L10.7001508,12.087344 C10.9601466,12.087344 11.0101458,12.087344 11.0101458,11.7963164 L11.0101458,9.41959148 L11.0101458,4.24900213 C11.000146,3.95797459 11.000146,3.90947 10.7001508,3.90947 L10.7001508,3.90947 Z M19.7000049,3.90947 L18.3800263,3.90947 C18.1400302,3.90947 18.1000308,3.90947 18.1000308,4.1810957 L18.1000308,11.7963164 C18.1000308,12.0000357 18.1000308,12.0485403 18.3600266,12.0485403 L19.7000049,12.0485403 C19.9200013,12.0485403 19.9800003,12.0000357 19.9800003,11.7769146 C19.9933334,9.26761043 20,6.71950261 20,4.13259111 C20,3.95797459 19.9200013,3.90947 19.7000049,3.90947 Z M0.210320985,12.0485403 L1.68029714,12.0485403 C1.73139399,12.0540833 1.78249527,12.0381637 1.82071197,12.0047968 C1.85892867,11.9714299 1.88061237,11.9238012 1.8802939,11.8739238 C1.8832591,11.8222255 1.8832591,11.7704073 1.8802939,11.7187091 L1.8802939,9.19647036 L1.8802939,6.60632523 C1.8802939,6.39290503 1.8802939,6.35410136 1.62029812,6.35410136 L0.260320174,6.35410136 C0.00032439159,6.36380228 0.00032439159,6.40260595 0.00032439159,6.62572707 L0.00032439159,11.8254192 C0.00032439159,11.9903348 0.0503235806,12.0485403 0.210320985,12.0485403 Z M0.210320985,5.75264444 L1.66029747,5.75264444 C1.82029487,5.75264444 1.8802939,5.68473801 1.8802939,5.52952332 L1.8802939,4.12289019 C1.8802939,3.9676755 1.81029503,3.89976908 1.66029747,3.89976908 L0.220320823,3.89976908 C0.0603234184,3.90947 0.00032439159,3.97737642 0.00032439159,4.13259111 L0.00032439159,5.55862607 C-0.0029363541,5.61272798 0.0185116193,5.66548039 0.0589650208,5.70285577 C0.0994184224,5.74023116 0.154777288,5.7584415 0.210320985,5.75264444 Z" id="形状" fill="red" fill-rule="nonzero"></path>
                    </g>
                </g>
            </g>
        </g>
    </g>
</svg>
